<svg xmlns="http://www.w3.org/2000/svg" viewBox="0 0 640 360"><defs><linearGradient id="bg" x1="0" y1="0" x2="0" y2="1"><stop offset="0%" stop-color="#0c1445"/><stop offset="60%" stop-color="#1a237e"/><stop offset="100%" stop-color="#e65100" stop-opacity="0.6"/></linearGradient></defs><rect width="640" height="360" fill="url(#bg)"/><ellipse cx="320" cy="340" rx="320" ry="80" fill="rgba(230,81,0,0.25)"/><ellipse cx="160" cy="120" rx="80" ry="50" fill="white" opacity="0.08"/><ellipse cx="480" cy="90" rx="100" ry="55" fill="white" opacity="0.06"/><g transform="translate(320,160) rotate(-15)"><path d="M-80,0 Q0,-30 80,0 Q60,8 0,8 Q-60,8 -80,0Z" fill="rgba(255,255,255,0.9)"/><path d="M0,8 L-20,35 L-10,35 L10,8Z" fill="rgba(255,255,255,0.85)"/><path d="M60,3 L40,18 L45,18 L65,3Z" fill="rgba(255,255,255,0.8)"/><path d="M-30,3 L-50,18 L-45,18 L-25,3Z" fill="rgba(255,255,255,0.8)"/><circle cx="30" cy="-2" r="5" fill="rgba(255,220,100,0.9)"/></g><circle cx="480" cy="80" r="35" fill="rgba(255,180,50,0.25)" stroke="rgba(255,180,50,0.4)" stroke-width="1"/><circle cx="480" cy="80" r="25" fill="rgba(255,200,80,0.2)"/></svg>